<?xml version="1.0" standalone="no"?><!DOCTYPE svg PUBLIC "-//W3C//DTD SVG 1.1//EN" "http://www.w3.org/Graphics/SVG/1.1/DTD/svg11.dtd"><svg t="1575517187137" class="icon" viewBox="0 0 1024 1024" version="1.1" xmlns="http://www.w3.org/2000/svg" p-id="14752" xmlns:xlink="http://www.w3.org/1999/xlink" width="200" height="200"><defs><style type="text/css"></style></defs><path d="M799.32 959.508h-574.2c-81.9 0.1-148.3-66.3-148.4-148.1v-537.1c0.3-81.8 66.6-148.1 148.4-148.4v63.8c-46.6 0 620.3 0 573.7-63.8 81.9-0.1 148.3 66.3 148.4 148.1V810.908c0.4 81.6-65.5 148.1-147.1 148.5-0.3 0.1-0.5 0.1-0.8 0.1z" fill="#46D8AB" p-id="14753"></path><path d="M735.32 251.608h-446.6c-51.7 0-93.7-41.9-93.7-93.7s41.9-93.7 93.7-93.7h446.6c51.7 0 93.7 41.9 93.7 93.7s-42 93.7-93.7 93.7z" fill="#46D8AB" p-id="14754"></path><path d="M734.02 219.908h-444.6c-21.7-4.8-35.3-26.3-30.5-48 3.4-15.2 15.3-27.1 30.5-30.5h444.6c19.4 2.4 33.5 19.7 31.9 39.3 1.2 19.3-12.7 36.3-31.9 39.2z" fill="#80ECCB" p-id="14755"></path><path d="M385.632 748.268c-13.4-13.3-13.4-34.9-0.1-48.2 0-0.1 0.1-0.1 0.1-0.1l337.2-337.2c13.7-13 35.3-12.5 48.4 1.2 12.5 13.2 12.5 33.9 0 47.1l-337.5 337.2c-13.1 13.3-34.4 13.4-47.7 0.4l-0.4-0.4z" fill="#FCFCFC" p-id="14756"></path><path d="M434.132 748.268c-13.3 13.4-34.9 13.4-48.2 0.1l-0.1-0.1-131.8-131.7c-13.7-13-14.2-34.7-1.2-48.4 13-13.7 34.7-14.2 48.4-1.2l1.2 1.2 131.7 131.7c0.6 3.8-108.2 26.1 0 48.4z" fill="#FCFCFC" p-id="14757"></path></svg>