<?xml version="1.0" standalone="no"?><!DOCTYPE svg PUBLIC "-//W3C//DTD SVG 1.1//EN" "http://www.w3.org/Graphics/SVG/1.1/DTD/svg11.dtd"><svg t="1575456932844" class="icon" viewBox="0 0 1024 1024" version="1.1" xmlns="http://www.w3.org/2000/svg" p-id="8547" xmlns:xlink="http://www.w3.org/1999/xlink" width="200" height="200"><defs><style type="text/css"></style></defs><path d="M512 316.8c-48.8 0-88-39.2-88-88s39.2-88 88-88 88 39.2 88 88c0 48-39.2 88-88 88z m0-144c-31.2 0-56 24.8-56 56s24.8 56 56 56 56-24.8 56-56-24.8-56-56-56z" p-id="8548" fill="#1296db"></path><path d="M544 236.8c-4.8 0-8-3.2-8-8 0-13.6-10.4-24-24-24-4.8 0-8-3.2-8-8s3.2-8 8-8c22.4 0 40 17.6 40 40 0 4-3.2 8-8 8zM656.8 347.2c-4 0-8-1.6-11.2-4.8-6.4-6.4-6.4-16 0-22.4 50.4-50.4 50.4-132 0-182.4-6.4-6.4-6.4-16 0-22.4 6.4-6.4 16-6.4 22.4 0 62.4 62.4 62.4 164.8 0 227.2-3.2 3.2-7.2 4.8-11.2 4.8z" p-id="8549" fill="#1296db"></path><path d="M707.2 397.6c-4 0-8-1.6-11.2-4.8-6.4-6.4-6.4-16 0-22.4 37.6-37.6 58.4-88 58.4-141.6 0-53.6-20.8-104-58.4-141.6-6.4-6.4-6.4-16 0-22.4 6.4-6.4 16-6.4 22.4 0 44 44 68 102.4 68 164 0 62.4-24 120-68 164-3.2 3.2-7.2 4.8-11.2 4.8z" p-id="8550" fill="#1296db"></path><path d="M763.2 453.6c-4 0-8-1.6-11.2-4.8-6.4-6.4-6.4-16 0-22.4 52.8-52.8 81.6-122.4 81.6-197.6 0-74.4-28.8-144.8-81.6-197.6-6.4-6.4-6.4-16 0-22.4 6.4-6.4 16-6.4 22.4 0 58.4 58.4 91.2 136.8 91.2 220 0 83.2-32 161.6-91.2 220-3.2 3.2-7.2 4.8-11.2 4.8zM367.2 347.2c-4 0-8-1.6-11.2-4.8-62.4-62.4-62.4-164.8 0-227.2 6.4-6.4 16-6.4 22.4 0 6.4 6.4 6.4 16 0 22.4-50.4 50.4-50.4 132 0 182.4 6.4 6.4 6.4 16 0 22.4-3.2 3.2-7.2 4.8-11.2 4.8z" p-id="8551" fill="#1296db"></path><path d="M316.8 397.6c-4 0-8-1.6-11.2-4.8-44-44-68-102.4-68-164 0-62.4 24-120 68-164 6.4-6.4 16-6.4 22.4 0 6.4 6.4 6.4 16 0 22.4-37.6 37.6-58.4 88-58.4 141.6 0 53.6 20.8 104 58.4 141.6 6.4 6.4 6.4 16 0 22.4-3.2 3.2-7.2 4.8-11.2 4.8z" p-id="8552" fill="#1296db"></path><path d="M260.8 453.6c-4 0-8-1.6-11.2-4.8-58.4-59.2-91.2-136.8-91.2-220 0-83.2 32-161.6 91.2-220 6.4-6.4 16-6.4 22.4 0 6.4 6.4 6.4 16 0 22.4-52.8 52.8-81.6 122.4-81.6 197.6 0 74.4 28.8 144.8 81.6 197.6 6.4 6.4 6.4 16 0 22.4-2.4 3.2-6.4 4.8-11.2 4.8zM819.2 1020c-6.4 0-12-3.2-14.4-9.6L512 340.8l-292 669.6c-3.2 8-12.8 12-20.8 8-8-3.2-12-12.8-8-20.8l307.2-703.2c2.4-5.6 8-9.6 14.4-9.6s12 4 14.4 9.6l307.2 703.2c3.2 8 0 17.6-8 20.8-3.2 0.8-5.6 1.6-7.2 1.6z" p-id="8553" fill="#1296db"></path><path d="M792.8 952.8c-1.6 0-3.2-0.8-4-1.6L350.4 668c-2.4-1.6-3.2-4-4-6.4 0-2.4 0.8-4.8 3.2-6.4l228.8-188c3.2-3.2 8.8-2.4 11.2 0.8 3.2 3.2 2.4 8.8-0.8 11.2L368 660l429.6 277.6c4 2.4 4.8 7.2 2.4 11.2-1.6 2.4-4.8 4-7.2 4z" p-id="8554" fill="#1296db"></path><path d="M231.2 952.8c-2.4 0-4.8-1.6-6.4-4-2.4-4-1.6-8.8 2.4-11.2L656 660 435.2 479.2c-3.2-3.2-4-8-0.8-11.2 3.2-3.2 8-4 11.2-0.8l228.8 188c1.6 1.6 3.2 4 3.2 6.4 0 2.4-1.6 4.8-4 6.4l-438.4 283.2c-0.8 0.8-2.4 1.6-4 1.6z" p-id="8555" fill="#1296db"></path></svg>