<?xml version="1.0" standalone="no"?><!DOCTYPE svg PUBLIC "-//W3C//DTD SVG 1.1//EN" "http://www.w3.org/Graphics/SVG/1.1/DTD/svg11.dtd"><svg class="icon" width="200px" height="200.00px" viewBox="0 0 1024 1024" version="1.1" xmlns="http://www.w3.org/2000/svg"><path d="M747.5 533v315.4H169.4V270.2h315.3c0-58.1 47.1-105.1 105.1-105.1H169.4c-58.1 0-105.1 47.1-105.1 105.1v578.1c0 58 47.1 105.1 105.1 105.1h578.1c58.1 0 105.1-47.1 105.1-105.1V427.8c0 58.1-47.1 105.2-105.1 105.2zM958 328.2L694.9 533V375.3C367.7 435.1 280.6 621.7 274.8 690 360.1 205.5 695 270.2 695 270.2V112.5l263 215.7z" /></svg>
