<?xml version="1.0" standalone="no"?><!DOCTYPE svg PUBLIC "-//W3C//DTD SVG 1.1//EN" "http://www.w3.org/Graphics/SVG/1.1/DTD/svg11.dtd"><svg t="1578400110286" class="icon" viewBox="0 0 1024 1024" version="1.1" xmlns="http://www.w3.org/2000/svg" p-id="9116" xmlns:xlink="http://www.w3.org/1999/xlink" width="64" height="64"><defs><style type="text/css"></style></defs><path d="M772.8 272H928v652.16c0 56.32-45.44 99.84-103.04 99.84H199.04C141.44 1024 96 980.48 96 924.16V108.16C96 51.84 141.44 0 199.04 0H672v159.168c0 56.32 43.178667 112.832 100.8 112.832zM736 512a48.149333 48.149333 0 0 0 48-48A48.149333 48.149333 0 0 0 736 416H288a48.149333 48.149333 0 0 0-48 48A48.149333 48.149333 0 0 0 288 512h448z m0 304A48.149333 48.149333 0 0 0 784 768 48.149333 48.149333 0 0 0 736 720H288A48.149333 48.149333 0 0 0 240 768 48.149333 48.149333 0 0 0 288 816h448z m192-608h-144A48 48 0 0 1 736 160V0a192 192 0 0 1 192 192v16z" fill="#FFA817" p-id="9117"></path></svg>