<?xml version="1.0" standalone="no"?><!DOCTYPE svg PUBLIC "-//W3C//DTD SVG 1.1//EN" "http://www.w3.org/Graphics/SVG/1.1/DTD/svg11.dtd"><svg t="1576480266186" class="icon" viewBox="0 0 1029 1024" version="1.1" xmlns="http://www.w3.org/2000/svg" p-id="43225" xmlns:xlink="http://www.w3.org/1999/xlink" width="64.3125" height="64"><defs><style type="text/css"></style></defs><path d="M928.6 37c-49.5 0-90 40.5-90 90v176.5H639.4c-29.2 0-43.4-36.9-43.4-112.8 0-30.8 0-112.8-95.5-112.8H235.8c-10.7-30.3-39.6-52.1-73.6-52.1-43.1 0-78.1 34.9-78.1 78.1v0.1c0 43.1 35 78.1 78.1 78.1 34 0 62.9-21.7 73.6-52h264.8c39.5 0 43.4 17.6 43.4 60.7 0 109.4 32.1 164.9 95.5 164.9H838.7V425H453c-11.9-53.8-60-94.1-117.3-94.1-66.2 0-120.1 53.9-120.1 120.1S269.5 571.1 335.7 571.1c57.3 0 105.3-40.3 117.3-94.1h385.6v86.8H700.1c-28.3 0-107.3 26.8-126.1 121.5h-86.8c-10.7-30.3-39.6-52.1-73.6-52.1-43.1 0-78.1 34.9-78.1 78.1v0.1c0 43.1 34.9 78.1 78.1 78.1 34 0 63-21.7 73.7-52.1h82.6c-0.9 37.3-8.8 121.5-60.6 121.5H238.9c-8.7-57.7-58.6-102.1-118.8-102.1-66.2 0-120.1 53.9-120.1 120.1S53.9 997 120.1 997c54.4 0 100.5-36.3 115.2-86h273.9c26 0 109.8-12.7 112.7-173.5h216.6v182.3c0 49.5 40.5 90 90 90s90-40.5 90-90V127c0.1-49.5-40.4-90-89.9-90zM627.1 685.3c12.1-47.7 44.1-69.4 73.1-69.4h138.4v69.4H627.1z" p-id="43226"></path></svg>
