<?xml version="1.0" standalone="no"?><!DOCTYPE svg PUBLIC "-//W3C//DTD SVG 1.1//EN" "http://www.w3.org/Graphics/SVG/1.1/DTD/svg11.dtd"><svg t="1576480254588" class="icon" viewBox="0 0 1024 1024" version="1.1" xmlns="http://www.w3.org/2000/svg" p-id="43007" xmlns:xlink="http://www.w3.org/1999/xlink" width="64" height="64"><defs><style type="text/css"></style></defs><path d="M814.085777 325.180191C774.592788 311.457195 732.1668 304.000197 687.999812 304.000197c-110.08397 0-209.349943 46.322987-279.365924 120.539967L31.846991 236.146215a63.905983 63.905983 0 0 1 3.530999-1.933999l447.999878-227.353938a63.155983 63.155983 0 0 1 57.243984 0l447.999878 227.353938c1.202 0.61 2.378999 1.256 3.529999 1.933999L814.086777 325.180191zM1023.99972 501.952143c-32.368991-58.332984-79.486978-107.349971-136.317963-142.015961l136.315963-68.157982 0.002 0.535v209.638943z m-656.057821-26.203993C327.53991 536.550133 303.999917 609.526113 303.999917 688.000092c0 135.423963 70.102981 254.47493 175.999952 322.842912v4.584998L35.37799 789.788064C13.695996 778.784067 0 756.292073 0 731.68808V292.3122c0-0.178 0-0.357 0.002-0.535l367.939899 183.96995zM687.999812 1024c-185.567949 0-335.999908-150.431959-335.999908-335.999908s150.431959-335.999908 335.999908-335.999908 335.999908 150.431959 335.999908 335.999908-150.431959 335.999908-335.999908 335.999908z m139.153962-341.729907l-64.045983-102.474972C776.184788 563.392126 783.999786 542.610132 783.999786 520.000138c0-53.019986-42.979988-95.999974-95.999974-95.999974s-95.999974 42.979988-95.999974 95.999974c0 22.608994 7.814998 43.391988 20.891994 59.794983L548.84585 682.270093A96.342974 96.342974 0 0 0 527.999856 680.000094c-53.019986 0-95.999974 42.979988-95.999974 95.999974s42.979988 95.999974 95.999974 95.999974c41.798989 0 77.358979-26.713993 90.536975-63.999983h138.925962C770.639789 845.286049 806.19978 872.000042 847.999768 872.000042c53.019986 0 95.999974-42.979988 95.999974-95.999974s-42.979988-95.999974-95.999974-95.999974c-7.158998 0-14.133996 0.784-20.845994 2.269999z m-54.261985 33.934991A95.828974 95.828974 0 0 0 757.461793 744.000077H618.537831a95.827974 95.827974 0 0 0-15.428996-27.794993l64.045983-102.474972A96.342974 96.342974 0 0 0 687.999812 616.000112c7.158998 0 14.133996-0.784 20.845994-2.27l64.045983 102.474972zM687.999812 552.000129c-17.672995 0-31.999991-14.326996-31.999991-31.999991 0-17.672995 14.326996-31.999991 31.999991-31.999991 17.672995 0 31.999991 14.326996 31.999991 31.999991 0 17.672995-14.326996 31.999991-31.999991 31.999991zM527.999856 808.000059c-17.672995 0-31.999991-14.326996-31.999992-31.999991 0-17.672995 14.326996-31.999991 31.999992-31.999991 17.672995 0 31.999991 14.326996 31.999991 31.999991 0 17.672995-14.326996 31.999991-31.999991 31.999991z m319.999912 0c-17.672995 0-31.999991-14.326996-31.999991-31.999991 0-17.672995 14.326996-31.999991 31.999991-31.999991 17.672995 0 31.999991 14.326996 31.999991 31.999991 0 17.672995-14.326996 31.999991-31.999991 31.999991z" p-id="43008"></path></svg>
