<?xml version="1.0" standalone="no"?><!DOCTYPE svg PUBLIC "-//W3C//DTD SVG 1.1//EN" "http://www.w3.org/Graphics/SVG/1.1/DTD/svg11.dtd"><svg t="1576480084744" class="icon" viewBox="0 0 1024 1024" version="1.1" xmlns="http://www.w3.org/2000/svg" p-id="42650" width="64" height="64" xmlns:xlink="http://www.w3.org/1999/xlink"><defs><style type="text/css"></style></defs><path d="M933.45792 754.19648H80.77312c-14.4384 0-26.17344 12.0832-26.17344 26.9312v154.46016c0 14.88896 11.73504 26.99264 26.17344 26.99264h852.6848c14.4384 0 26.15296-12.12416 26.15296-26.99264v-154.46016c0-14.848-11.71456-26.9312-26.15296-26.9312z m-785.65376 102.1952v-50.76992h18.5344v50.76992H200.704v-50.76992h18.51392v80.1792h34.304v-80.1792h18.59584v51.99872h34.304v-51.99872h18.57536v51.99872h34.32448v-51.99872h18.57536v80.77312h34.32448v-80.77312h18.51392v51.99872h34.32448v-51.99872h18.55488v51.99872h34.32448v-51.99872h18.57536v79.60576h34.32448v-79.60576h18.57536v51.15904h34.32448v-51.15904h18.57536v50.76992h34.32448v-50.76992h18.57536v79.21664h34.304v-79.21664h18.51392v50.5856h34.32448v-50.5856h18.57536v50.5856h34.32448v-50.5856h18.57536v79.872h34.304v-79.872h21.52448v105.472H104.5504v-105.472h8.92928v50.76992h34.32448zM550.23616 431.84128l3.62496 0.83968a103.85408 103.85408 0 0 1 49.99168 27.48416 103.75168 103.75168 0 0 1 27.50464 49.9712l0.83968 3.54304 3.62496 0.38912c1.00352 0.08192 2.00704 0.14336 2.99008 0.14336 7.18848 0 13.84448-2.70336 18.7392-7.59808l294.11328-294.13376c5.12-5.12 7.94624-11.89888 7.94624-19.12832s-2.82624-14.00832-7.94624-19.10784l-61.93152-61.89056a26.70592 26.70592 0 0 0-19.08736-7.94624c-7.24992 0-14.0288 2.82624-19.10784 7.92576l-294.0928 294.15424a26.8288 26.8288 0 0 0-7.51616 21.66784l0.3072 3.6864z m281.23136-222.98624l39.2192-39.19872 23.6544 23.71584-39.15776 39.17824-23.71584-23.69536zM614.72768 425.59488l194.00704-194.00704 23.71584 23.69536-193.98656 193.98656-23.73632-23.67488zM90.2144 726.07744h315.8016a26.17344 26.17344 0 0 0 0-52.38784H153.45664l113.74592-113.7664c4.95616-4.93568 7.68-11.53024 7.68-18.51392 0-7.02464-2.72384-13.57824-7.63904-18.47296a26.112 26.112 0 0 0-37.04832-0.02048L116.4288 636.7232V80.77312a26.17344 26.17344 0 0 0-52.38784 0v619.15136c-0.04096 12.67712 9.15456 26.15296 26.17344 26.15296z" p-id="42651"></path><path d="M531.80416 626.688c32.23552-4.4032 46.94016-6.41024 69.07904-28.48768a95.6416 95.6416 0 0 0-0.02048-135.02464 95.00672 95.00672 0 0 0-67.52256-27.9552 94.8224 94.8224 0 0 0-67.4816 27.9552c-22.09792 22.09792-24.10496 36.82304-28.52864 69.20192l-0.08192 0.69632a843.10016 843.10016 0 0 1-18.98496 99.24608l-4.52608 17.98144 18.04288-4.5056a834.4576 834.4576 0 0 1 100.02432-19.10784z m1.536-148.09088c13.9264 0 26.99264 5.40672 36.84352 15.19616 20.2752 20.35712 20.2752 53.41184 0.02048 73.728-13.25056 13.23008-24.3712 14.45888-51.3024 17.408-12.22656 1.35168-27.09504 3.05152-46.12096 6.3488 3.39968-19.47648 5.05856-34.67264 6.30784-46.10048 3.01056-26.9312 4.25984-38.11328 17.44896-51.34336a51.75296 51.75296 0 0 1 36.80256-15.23712z" p-id="42652"></path></svg>