<?xml version="1.0" standalone="no"?><!DOCTYPE svg PUBLIC "-//W3C//DTD SVG 1.1//EN" "http://www.w3.org/Graphics/SVG/1.1/DTD/svg11.dtd"><svg t="1575456892922" class="icon" viewBox="0 0 1024 1024" version="1.1" xmlns="http://www.w3.org/2000/svg" p-id="7824" xmlns:xlink="http://www.w3.org/1999/xlink" width="200" height="200"><defs><style type="text/css"></style></defs><path d="M337.4 888H709v46.5H337.4zM554.2 67.3c0 17.1-13.9 31-31 31s-31-13.9-31-31 13.9-31 31-31c17.1 0.1 31 13.9 31 31z m0 0" fill="#206BAB" p-id="7825"></path><path d="M290.9 934.5h464.5v61.9H290.9z" fill="#F0BB5D" p-id="7826"></path><path d="M600.6 934.5h154.9v61.9H600.6z" fill="#EEAC38" p-id="7827"></path><path d="M987.7 377c0 136.8-208 247.8-464.5 247.8S58.7 513.9 58.7 377" fill="#74A2CA" p-id="7828"></path><path d="M987.7 346.1c0 59.9-208 108.4-464.5 108.4-256.6 0-464.5-48.5-464.5-108.4 0-59.9 208-108.4 464.5-108.4s464.5 48.5 464.5 108.4z m0 0" fill="#F0BB5D" p-id="7829"></path><path d="M523.2 454.5c-210.4 0-388.2-32.7-445.3-77.4H58.7c0 136.8 208 247.8 464.5 247.8s464.5-111 464.5-247.9h-19.3c-57.1 44.8-234.8 77.5-445.2 77.5z m0 0" fill="#74A2CA" p-id="7830"></path><path d="M987.7 377c-71.4 234.5-418.1 247.8-418.1 247.8 56.4-45 46.5-170.3 46.5-170.3s194.1-1 371.6-77.5" fill="#206BAB" p-id="7831"></path><path d="M554.2 237.7s56.1 13.5 61.9 216.8c0 0 375.1-20.7 371.6-108.4 0 0 7-101.2-433.5-108.4z m0 0" fill="#EEAC38" p-id="7832"></path><path d="M770.6 1011.5H275.8v-92.1h494.7v92.1zM306 981.3h434.4v-31.8H306v31.8z m0 0M855.1 254.7c-33.4-7.8-71-14.3-111.6-19.3L568.7 60.6c-3.3-22.2-22.4-39.3-45.6-39.3-23.1 0-42.3 17.1-45.5 39.3L302.8 235.4c-40.5 5.1-78.1 11.5-111.6 19.3-98 22.9-147.7 53.6-147.7 91.3 0 80 50.9 154.5 143.4 210 86.5 51.9 200 81.4 321.2 83.6v233.2H337.4V903H709v-30.2H538.3V639.7c121.1-2.3 234.7-31.7 321.2-83.6 92.5-55.5 143.4-130.1 143.4-210-0.1-37.8-49.8-68.5-147.8-91.4zM510.6 111.6c4 1.1 8.2 1.7 12.5 1.7 4.3 0 8.5-0.6 12.5-1.7l53.6 112c-21.7-0.7-43.8-1.1-66.1-1.1-22.3 0-44.4 0.4-66.1 1.1l53.6-112z m12.6 141.2c27.4 0 54.4 0.6 80.8 1.6l85 177.8c-52.2 4.7-108.2 7.1-165.9 7.1s-113.7-2.5-165.9-7.1l85.1-177.8c26.5-1.1 53.5-1.6 80.9-1.6z m38.7-156.4l133.8 133.8c-23.4-2.2-47.6-3.9-72.3-5.1L561.9 96.4z m-38.7-44.9c8.8 0 15.9 7.1 15.9 15.9s-7.1 15.9-15.9 15.9-15.9-7.1-15.9-15.9 7.1-15.9 15.9-15.9z m-38.7 44.9L423 225.1c-24.7 1.3-48.9 3-72.3 5.1L484.5 96.4zM73.7 346.1c0-8.4 10.5-18.9 28.7-29 21.9-12.1 55-23.5 95.7-33 58.9-13.8 131.1-23.3 210-28L325.4 429c-46.7-5.2-89.7-12.2-127.3-21-98.2-22.9-124.4-49.7-124.4-61.9z m770.2 184.1c-85.4 51.3-199.3 79.5-320.7 79.5-121.4 0-235.3-28.2-320.7-79.5-61.6-36.9-102.6-82.5-119.7-131.7 24.7 14.7 60.9 27.7 108.5 38.8 88.8 20.7 206.7 32.1 331.9 32.1 125.2 0 243.1-11.4 331.9-32.1 47.7-11.1 83.9-24.1 108.5-38.8-17.1 49.2-58.1 94.8-119.7 131.7z m100-155.2c-21.9 12.1-55 23.5-95.7 33-37.6 8.8-80.6 15.8-127.3 21l-82.7-172.9c78.8 4.7 151.1 14.2 210 28 98.2 22.9 124.4 49.7 124.4 62 0 8.3-10.4 18.9-28.7 28.9z m0 0" fill="#1C1C1A" p-id="7833"></path><path d="M461.3 501.3h123.9v30.2H461.3z" fill="#FFFFFF" p-id="7834"></path></svg>