<?xml version="1.0" standalone="no"?><!DOCTYPE svg PUBLIC "-//W3C//DTD SVG 1.1//EN" "http://www.w3.org/Graphics/SVG/1.1/DTD/svg11.dtd"><svg t="1566365888015" class="icon" viewBox="0 0 1024 1024" version="1.1" xmlns="http://www.w3.org/2000/svg" p-id="9994" xmlns:xlink="http://www.w3.org/1999/xlink" width="200" height="200"><defs><style type="text/css"></style></defs><path d="M512 684.5c-95.1 0-172.5-77.4-172.5-172.5S416.9 339.5 512 339.5 684.5 416.9 684.5 512 607.1 684.5 512 684.5z m0-297c-68.7 0-124.5 55.9-124.5 124.5 0 68.7 55.9 124.5 124.5 124.5 68.7 0 124.5-55.9 124.5-124.5 0-68.7-55.8-124.5-124.5-124.5z" p-id="9995"></path><path d="M606.9 1024h-190l-7.8-108.3c-1.9-25.6-17.9-48.3-40.8-57.7l-1.2-0.5c-23.4-9.7-49.7-5.5-68.8 11L217 938.7 82.7 804.3l70.2-81.3c16.5-19.1 20.7-45.5 11-68.8l-0.5-1.1c-9.6-23.3-31.2-39-56.4-40.8L0 604.4v-190l107-7.8c25.2-1.8 46.9-17.5 56.5-40.8l0.4-1.1c9.7-23.3 5.5-49.7-11-68.8l-70.2-81.3L217.1 80.2l81.3 70.3c19.2 16.6 45.6 20.8 68.9 11.2 1.1-0.5 2.3-0.8 3.4-1.1 22.1-10 36.7-30.8 38.5-54.8L417 0h189.9l7.9 105.6c1.8 24.8 17.1 45.4 40.8 55.2l1.2 0.5c23.4 9.7 49.7 5.5 68.8-11l81.2-70.1 134.3 134.3-70.1 81.2c-16.5 19.1-20.7 45.5-11 68.9l0.5 1.2c9.6 23.4 31.2 39 56.5 40.8l106.9 7.8v190L917 612.3c-25.2 1.9-46.8 17.5-56.4 40.8l-0.5 1.2c-9.7 23.4-5.5 49.8 11 68.9l70.1 81.2-134.3 134.3-81.2-70c-18.5-15.9-43.9-20.3-66.8-11.7-1 0.6-2.1 1.1-3.3 1.7-22.9 9.4-38.9 31.8-40.8 57.1l-7.9 108.2z m-145.3-48h100.7l4.6-63.7c3.1-42.3 29.7-80.1 68-96.9 1-0.6 2.2-1.3 3.6-1.8 40.3-16.7 85.7-9.5 118.6 18.8l47.4 40.9 71.3-71.3-40.9-47.4c-13.9-16.1-23-35.7-26.3-56.6-3.4-21-0.8-42.4 7.3-62l0.4-1.1c8.1-19.6 21.4-36.6 38.7-49 17.2-12.4 37.5-19.8 58.6-21.4l62.5-4.6V459l-62.4-4.6c-21.2-1.6-41.5-8.9-58.7-21.4-17.2-12.4-30.6-29.4-38.7-49l-0.5-1.1c-16.7-40.2-9.4-85.7 19-118.6l40.9-47.4-71.2-71.2-47.4 41c-21.2 18.3-47.7 27.9-74.5 27.9-14.8 0-29.8-2.9-44.1-8.8l-1-0.4c-40.3-16.6-67.4-53.4-70.5-96L562.3 48H461.5l-4.6 61.3c-3.2 43-30.1 80.1-70.4 96.6-1.2 0.5-2.5 0.9-3.8 1.2-18.8 7.2-39.2 9.4-59.2 6.1-20.9-3.4-40.5-12.5-56.6-26.4l-47.5-41.1-71.2 71.2 41 47.5c28.4 32.9 35.7 78.4 19 118.6l-0.4 0.9c-8.1 19.7-21.5 36.6-38.7 49.1-17.2 12.4-37.5 19.8-58.7 21.4L48 459v100.8l62.5 4.6c21.2 1.6 41.5 9 58.7 21.4 17.2 12.5 30.6 29.4 38.7 49.1l0.4 1c16.7 40.2 9.4 85.7-19 118.6l-41 47.5 71.2 71.2 47.5-41c32.9-28.4 78.4-35.7 118.6-19l1 0.4c39.6 16.3 67.2 55 70.4 98.6l4.6 63.8z m175.8-161.7c-0.1 0-0.1 0 0 0-0.1 0-0.1 0 0 0z" p-id="9996"></path></svg>