<?xml version="1.0" standalone="no"?><!DOCTYPE svg PUBLIC "-//W3C//DTD SVG 1.1//EN" "http://www.w3.org/Graphics/SVG/1.1/DTD/svg11.dtd"><svg t="1571824165049" class="icon" viewBox="0 0 1024 1024" version="1.1" xmlns="http://www.w3.org/2000/svg" p-id="38242" xmlns:xlink="http://www.w3.org/1999/xlink" width="200" height="200"><defs><style type="text/css"></style></defs><path d="M159.8348 558.858214l-0.37146 0c0 88.456634 1.046842 176.943968-0.337691 265.399579-0.708128 33.514301 5.163603 51.838645 43.535539 51.130518 114.746394-2.025123 229.120304-1.687432 343.529007-0.675382 29.698392 0.337691 40.769542-10.359952 40.095183-41.105187-1.046842-69.118194 0.336668-138.236388-0.338714-207.015867-0.369414-51.837622 16.200984-117.175723-7.963369-151.733796-28.688389-42.11826-96.421027-13.095249-146.875139-15.186887-35.942607-1.38351-45.6282-13.837146-46.303582-49.40727-0.709151-50.826596 23.48897-117.851105-10.732435-148.629085-35.571147-32.129768-99.524714-7.593955-150.991899-10.69969-6.244214-0.337691-12.824073 0.709151-18.696828 0-36.988426-5.163603-45.964868 14.173814-45.25674 49.070602C161.185564 386.065799 159.8348 472.462518 159.8348 558.858214zM110.764198 556.091194c0-90.547249 2.058892-181.432189-0.709151-271.981485-2.057869-58.384735 22.443152-81.537038 76.374458-84.303035 240.527099-11.069103 268.841981 1.349741 426.786223 186.968276 16.266475 19.336394 22.476921 39.013549 22.13923 64.257489-0.708128 131.687228-1.045819 263.677355 0 395.331837 0.674359 53.930283-22.476921 79.174224-74.314543 79.174224-125.106346-0.707105-250.213715-1.045819-375.285269 0-52.210106 0.337691-76.070536-23.52274-75.361385-77.419254C111.43958 750.653425 110.764198 653.524271 110.764198 556.091194zM386.524752 147.259902c19.338441-40.802288 42.153052-51.467185 73.606415-51.128471 70.838372 1.01205 141.677766-1.045819 212.548884 0.675382 60.141752 1.38351 237.387595 192.840006 237.387595 255.410064 0.337691 129.22413-1.011027 258.818697 0.337691 388.414287 0.708128 57.371662-24.163329 82.919525-78.768995 80.895425-37.32714-1.080611-74.990948-0.37146-112.316042 0-18.325367 0-33.546024-2.76702-32.467459-27.674293 1.01205-21.766746 15.188934-22.476921 30.374798-22.813588l12.45159 0c131.655506-7.593955 131.655506-7.593955 131.655506-146.875139 0-73.233931-1.349741-146.535401 0.369414-219.771379 0.711198-34.219359-6.579859-50.824549-44.243667-50.486858-49.408293 0-111.978351 22.813588-144.781454-9.990538-33.546024-33.208333-10.05603-98.141204-10.732435-149.304468-0.336668-36.650735-11.405771-49.070602-46.64025-48.058552C541.668205 148.643412 467.724099 147.259902 386.524752 147.259902z" p-id="38243"></path></svg>