<?xml version="1.0" standalone="no"?><!DOCTYPE svg PUBLIC "-//W3C//DTD SVG 1.1//EN" "http://www.w3.org/Graphics/SVG/1.1/DTD/svg11.dtd"><svg t="1576563999637" class="icon" viewBox="0 0 1024 1024" version="1.1" xmlns="http://www.w3.org/2000/svg" p-id="6661" xmlns:xlink="http://www.w3.org/1999/xlink" width="64" height="64"><defs><style type="text/css"></style></defs><path d="M 511.436 302.584 m -302.584 0 a 302.584 302.584 0 1 0 605.169 0 a 302.584 302.584 0 1 0 -605.169 0 Z" fill="#8a8a8a" p-id="6662"></path><path d="M 803.763 603.459 c -23.9332 -18.8047 -58.1235 -17.0952 -80.3472 5.12855 c -54.7045 54.7045 -129.923 88.8948 -213.689 88.8948 s -158.985 -34.1903 -213.689 -88.8948 c -22.2237 -22.2237 -56.414 -25.6427 -80.3472 -5.12855 C 123.376 682.097 54.9952 782.958 32.7715 921.429 c -8.54758 56.414 30.7713 102.571 88.8948 102.571 H 902.915 c 56.414 0 97.4424 -46.1569 88.8948 -102.571 c -23.9332 -138.471 -92.3139 -239.332 -188.047 -317.97 Z" fill="#8a8a8a" p-id="6663"></path></svg>