<?xml version="1.0" standalone="no"?><!DOCTYPE svg PUBLIC "-//W3C//DTD SVG 1.1//EN" "http://www.w3.org/Graphics/SVG/1.1/DTD/svg11.dtd"><svg t="1575517302142" class="icon" viewBox="0 0 1024 1024" version="1.1" xmlns="http://www.w3.org/2000/svg" p-id="15772" xmlns:xlink="http://www.w3.org/1999/xlink" width="200" height="200"><defs><style type="text/css"></style></defs><path d="M291.9424 297.856h-0.0768 0.0768z" fill="#F5F5F5" p-id="15773"></path><path d="M818.9184 532.3776h-56.4736l-17.6896 197.12h74.1632zM744.7552 729.4976L718.3616 1024h100.5568V729.4976z" fill="#3AAEDA" p-id="15774"></path><path d="M744.7808 729.4976l17.6896-197.12H616.448l-101.1712 272.3584 75.2384-75.2384z" fill="#3AAEDA" p-id="15775"></path><path d="M590.5152 729.4976l-75.2384 75.2384-78.2592 210.688V1024h281.3696l26.3936-294.5024z" fill="#299DC1" p-id="15776"></path><path d="M253.312 532.3776h-202.496V1024h245.1968l102.016-102.016-55.6288-149.7344zM371.2256 450.8416c2.3552 0.6656 4.6592 1.5104 7.04 2.1248 1.4592 0.384 2.7904 1.0496 4.2752 1.3824a229.5296 229.5296 0 0 0 52.3264 6.528c0.7168 0 1.408-0.128 2.1504-0.1536V0.1024c-0.7168 0-1.408-0.1024-2.1504-0.1024-5.632 0-10.9056 1.2544-16.4608 1.6384-2.3552 0.1792-4.6592 0.5888-6.9888 0.8448C295.3472 14.3616 204.4416 111.1552 204.4416 230.4c0 105.0368 70.6816 192.7168 166.784 220.4416z" fill="#79C3E0" p-id="15777"></path><path d="M437.0176 1024v-8.576l-2.1248 5.76-36.864-99.2L296.0128 1024z" fill="#63B1C9" p-id="15778"></path><path d="M665.3184 230.4256c0-126.5408-102.0416-229.1456-228.2752-230.3232v460.6208a233.1648 233.1648 0 0 0 50.1504-6.3744c101.9648-23.7568 178.1248-114.7136 178.1248-223.9232z" fill="#3AAEDA" p-id="15779"></path><path d="M437.0176 540.1344h-73.8048l-5.4784 61.3376 79.2832 189.7984zM560.2304 540.1344h-123.2128v251.136l3.7376 8.9344zM363.2128 540.1344h-31.1296l25.6256 61.3376z" fill="#F8FBFF" p-id="15780"></path><path d="M476.16 723.1232l32.64-71.04 51.4304-111.9488h-123.2128v104.5504h9.1392v54.4h-9.1392v92.1856l3.7376 8.9344z" fill="#CCCCCC" p-id="15781"></path><path d="M437.0176 699.0848h-38.528l38.528 92.1856zM375.7824 644.6848h61.2352v-104.5504h-104.9344l25.6512 61.3376z" fill="#F8FBFF" p-id="15782"></path><path d="M375.7824 644.6848l22.7072 54.4h38.528v-54.4h-61.2352z" fill="#DD394E" p-id="15783"></path><path d="M437.0176 644.6848h9.1136v54.4h-9.1136v-54.4z" fill="#B8141B" p-id="15784"></path><path d="M836.4288 677.4272h-58.3424l-19.2512 19.2768v31.9744h19.2512v-31.9744h58.3424v31.9744h19.2768v-31.9744z" fill="#E17C1F" p-id="15785"></path><path d="M807.2704 871.8336H590.5152v136.96c0 6.784 5.5552 12.3392 12.3648 12.3392h408.7552a12.3904 12.3904 0 0 0 12.3648-12.3392v-136.96h-216.7296z" fill="#C2630F" p-id="15786"></path><path d="M590.5152 725.632h195.7632v3.8656h-195.7632zM829.0048 725.632H1024v3.8656h-194.9952z" fill="#EF9552" p-id="15787"></path><path d="M786.2784 725.632h42.7264v3.8656h-42.7264z" fill="#E5802E" p-id="15788"></path><path d="M786.2784 858.4704h20.992v13.3632h-20.992z" fill="#A35C16" p-id="15789"></path><path d="M807.2704 858.4704h21.76v13.3632h-21.76z" fill="#D2D1C1" p-id="15790"></path><path d="M786.2784 729.4976h-195.7376v142.3616h195.7376v-5.248h20.992v5.248H1024v-142.3616h-194.9952z" fill="#CE6D17" p-id="15791"></path><path d="M786.2784 854.8608h-9.9072v16.9728h62.5664v-16.9728h-9.9328z" fill="#E5802E" p-id="15792"></path><path d="M776.3712 871.8336v4.6336h62.5664v-4.6336h-31.6672z" fill="#CE6D17" p-id="15793"></path></svg>