<?xml version="1.0" standalone="no"?><!DOCTYPE svg PUBLIC "-//W3C//DTD SVG 1.1//EN" "http://www.w3.org/Graphics/SVG/1.1/DTD/svg11.dtd"><svg t="1575517218267" class="icon" viewBox="0 0 1024 1024" version="1.1" xmlns="http://www.w3.org/2000/svg" p-id="14995" xmlns:xlink="http://www.w3.org/1999/xlink" width="200" height="200"><defs><style type="text/css"></style></defs><path d="M403.735 747.248h337.259a108.493 108.493 0 0 0 76.739-31.798 108.455 108.455 0 0 0 31.796-76.74V326.139a108.508 108.508 0 0 0-31.796-76.751 108.545 108.545 0 0 0-76.739-31.801h-224.91a108.51 108.51 0 0 1-70.272-25.811l-9.154-7.827a149.232 149.232 0 0 0-96.71-35.286H212.271c-59.918-0.163-108.625 48.222-108.857 108.142v259.227a240.001 240.001 0 0 1 61.217-7.888c132.057-0.001 239.104 107.06 239.104 239.104z m156.076-259.064a7.337 7.337 0 0 0 4.832-5.43 7.356 7.356 0 0 0-2.262-6.921c-28.093-25.812-37.479-66.24-23.624-101.791 13.869-35.567 48.119-58.985 86.283-58.985 38.167 0 72.417 23.417 86.275 58.985 13.854 35.551 4.479 75.979-23.625 101.791a7.327 7.327 0 0 0-2.292 6.893 7.304 7.304 0 0 0 4.759 5.459 131.228 131.228 0 0 1 59.993 38.778 110.421 110.421 0 0 1 18.207 29.74 71.59 71.59 0 0 1 5.662 25.422c-1.414 13.604-10.614 25.139-23.563 29.519a163.885 163.885 0 0 1-40.021 11.329 541.662 541.662 0 0 1-170.586 0 163.007 163.007 0 0 1-40.121-11.329 34.958 34.958 0 0 1-23.563-29.844 93.553 93.553 0 0 1 24.178-54.836 128.762 128.762 0 0 1 59.468-38.78z" fill="#1082FF" opacity=".4" p-id="14996"></path><path d="M634.092 520.274a7.594 7.594 0 0 1 0.924-6.26l3.094-4.746a7.606 7.606 0 0 0 1.227-4.53v-0.611c-0.206-3.912-3.371-7.038-7.298-7.197h-14.311c-3.923 0.161-7.096 3.285-7.298 7.197v0.611a7.551 7.551 0 0 0 1.242 4.53l3.18 4.847a7.6 7.6 0 0 1 1.036 6.07l-14.819 57.41a7.583 7.583 0 0 0 2.979 8.118l17.697 12.25a7.613 7.613 0 0 0 8.643 0l17.491-12.136a7.642 7.642 0 0 0 2.977-8.352l-16.764-57.201z" fill="#1082FF" opacity=".4" p-id="14997"></path><path d="M211.438 747.248h192.296c0-132.044-107.048-239.105-239.104-239.105a239.963 239.963 0 0 0-61.217 7.888c-0.169 0.046-0.341 0.083-0.511 0.128v122.436a108.498 108.498 0 0 0 31.754 76.826 108.513 108.513 0 0 0 76.782 31.827z" fill="#459CFC" opacity=".4" p-id="14998"></path><path d="M478.487 851.899h337.26c28.776 0 56.387-11.43 76.738-31.8a108.451 108.451 0 0 0 31.799-76.734V430.793a108.514 108.514 0 0 0-31.799-76.752 108.537 108.537 0 0 0-76.738-31.8H590.834a108.52 108.52 0 0 1-70.271-25.812l-9.155-7.828c-27.02-22.863-61.303-35.36-96.709-35.286H287.021c-59.916-0.162-108.623 48.223-108.857 108.142V620.93c71.714-18.953 148.146-3.563 206.941 41.654 58.795 45.213 93.293 115.147 93.382 189.315z m96.61-220.283a128.758 128.758 0 0 1 59.466-38.778 7.33 7.33 0 0 0 4.831-5.432 7.343 7.343 0 0 0-2.261-6.921c-28.089-25.812-37.479-66.239-23.625-101.792 13.87-35.563 48.123-58.981 86.288-58.981 38.164 0 72.417 23.419 86.273 58.981 13.852 35.552 4.479 75.98-23.623 101.792a7.315 7.315 0 0 0 2.464 12.354 131.235 131.235 0 0 1 59.991 38.778 110.273 110.273 0 0 1 18.208 29.742 71.475 71.475 0 0 1 5.665 25.414c-1.417 13.61-10.614 25.142-23.567 29.523a163.68 163.68 0 0 1-40.021 11.33 541.762 541.762 0 0 1-170.583 0 163.27 163.27 0 0 1-40.12-11.33 34.954 34.954 0 0 1-23.564-29.842 93.555 93.555 0 0 1 24.178-54.838z" fill="#1082FF" p-id="14999"></path><path d="M675.822 682.249a7.57 7.57 0 0 0 2.978 8.115l17.695 12.251a7.602 7.602 0 0 0 8.645 0l17.492-12.132a7.644 7.644 0 0 0 2.978-8.352l-16.762-57.202a7.586 7.586 0 0 1 0.918-6.265l3.1-4.744a7.625 7.625 0 0 0 1.226-4.527v-0.616c-0.207-3.911-3.372-7.035-7.302-7.195h-14.306c-3.928 0.161-7.097 3.284-7.299 7.195v0.616a7.534 7.534 0 0 0 1.239 4.527l3.181 4.847a7.608 7.608 0 0 1 1.037 6.073l-14.82 57.409zM478.487 851.899c0-132.043-107.047-239.105-239.103-239.105a240.143 240.143 0 0 0-61.73 8.015v122.438a108.507 108.507 0 0 0 31.755 76.826 108.49 108.49 0 0 0 76.78 31.828l192.298-0.002z" fill="#1082FF" p-id="15000"></path><path d="M478.487 851.899c0-132.043-107.047-239.105-239.103-239.105a240.143 240.143 0 0 0-61.73 8.015v122.438a108.507 108.507 0 0 0 31.755 76.826 108.49 108.49 0 0 0 76.78 31.828l192.298-0.002z" fill="#459CFC" p-id="15001"></path></svg>