<?xml version="1.0" standalone="no"?><!DOCTYPE svg PUBLIC "-//W3C//DTD SVG 1.1//EN" "http://www.w3.org/Graphics/SVG/1.1/DTD/svg11.dtd"><svg t="1567597287678" class="icon" viewBox="0 0 1024 1024" version="1.1" xmlns="http://www.w3.org/2000/svg" p-id="38061" xmlns:xlink="http://www.w3.org/1999/xlink" width="128" height="128"><defs><style type="text/css"></style></defs><path d="M59.372446 565.804282c21.503914 265.40112 242.035395 463.218511 483.419157 458.098531 257.953877-5.399251 451.768375-240.918309 458.563984-439.945876a340.618274 340.618274 0 0 0-18.618107-122.414056z" opacity=".2" p-id="38062"></path><path d="M59.372446 565.804282c56.505956 240.452856 262.422223 405.036925 478.206087 400.940942 263.446219-4.933798 480.160988-260.653503 461.26361-442.645502a217.645675 217.645675 0 0 0-16.756297-62.556841z" opacity=".2" p-id="38063"></path><path d="M59.372446 565.804282a514.976849 514.976849 0 0 0 195.490127 221.090025 521.307006 521.307006 0 0 0 342.945538 70.469536 782.705233 782.705233 0 0 1-109.102109-71.772804c-111.708644-87.877467-110.033014-136.191455-187.670522-162.629167-38.260211-13.032675-115.152994-27.368618-151.272123-34.071137-5.11998-0.930905-22.993363-4.189074-46.545268-10.333049a668.762416 668.762416 0 0 1-43.845643-12.753404z" opacity=".2" p-id="38064"></path><path d="M104.242085 353.650949c53.80633-63.022293 129.861299-77.172055 175.475662-85.084751s90.11164-4.375255 178.082196 2.699626c84.340026 6.795609 131.257657 16.197753 207.312626 5.306161 71.679713-10.239959 88.901463-30.347515 95.697071-45.148911 14.429033-31.464601-6.98179-71.586623-10.053777-77.078964-22.52791-41.052927-56.785227-41.797651-58.83322-68.793907a51.199795 51.199795 0 0 1 42.263104-50.827433 53.247787 53.247787 0 0 1 42.542375 18.618108 36.584581 36.584581 0 0 1 34.536589-25.227536c18.618107 1.303268 28.951157 21.783186 30.533696 35.932947 2.885807 25.320626-19.455922 46.545268-21.224642 48.50017a100.258508 100.258508 0 0 0-17.687202 16.570115 172.682946 172.682946 0 0 0-12.19486 19.921375s4.840708 7.167971 8.378148 11.170865a47.103812 47.103812 0 0 0 14.149762 10.798502c12.567222 6.8887 86.574199 66.094281 118.969706 120.272973a380.181752 380.181752 0 0 1 50.548161 203.402823c-3.723621 199.958473-165.328793 329.912862-191.394143 350.206599a57.436861 57.436861 0 0 0 25.879169 21.969367 65.163376 65.163376 0 0 0 31.27842 2.699626 350.765142 350.765142 0 0 1-134.236554 23.272634c-100.723961-2.978897-174.172394-59.112491-233.284885-104.354492-121.855513-93.090537-113.011912-148.944859-197.351938-170.169501-36.49149-9.309054-73.727705-6.516338-154.157929-29.230429-29.882062-8.471239-54.085602-17.035568-70.190264-23.086453a234.029609 234.029609 0 0 1 1.210177-132.560924 227.885634 227.885634 0 0 1 43.752552-79.77859z" opacity=".2" p-id="38065"></path><path d="M298.335854 417.417967m-92.997446 0a92.997446 92.997446 0 1 0 185.994892 0 92.997446 92.997446 0 1 0-185.994892 0Z" opacity=".2" p-id="38066"></path><path d="M298.335854 417.417967m-57.15759 0a57.15759 57.15759 0 1 0 114.31518 0 57.15759 57.15759 0 1 0-114.31518 0Z" opacity=".2" p-id="38067"></path><path d="M31.445285 537.877121c21.503914 265.40112 242.035395 463.218511 483.419157 458.098531 257.953877-5.399251 451.768375-240.918309 458.563984-439.945876a340.618274 340.618274 0 0 0-18.618107-122.414056z" fill="#B1B1B1" p-id="38068"></path><path d="M31.445285 537.877121c56.971408 240.359766 262.422223 405.036925 478.206087 400.940942 263.446219-4.933798 480.160988-260.653503 461.26361-442.645502a217.645675 217.645675 0 0 0-16.756297-62.556841z" fill="#E3E3E3" p-id="38069"></path><path d="M31.445285 537.877121a514.976849 514.976849 0 0 0 195.490127 221.090025 521.307006 521.307006 0 0 0 342.945538 70.469536 782.705233 782.705233 0 0 1-109.102109-71.772804c-111.708644-87.877467-110.033014-136.191455-187.670522-162.629167-38.260211-13.032675-115.152994-27.368618-151.272123-34.071137-5.11998-0.930905-22.993363-4.189074-46.545268-10.333049a668.762416 668.762416 0 0 1-43.845643-12.753404z" fill="#FFFFFF" p-id="38070"></path><path d="M76.314924 325.723788c53.80633-63.022293 129.861299-77.172055 175.475662-85.084751s90.11164-4.375255 178.082196 2.699626c84.340026 6.795609 131.257657 16.197753 207.312626 5.306161 71.679713-10.239959 88.901463-30.347515 95.697071-45.148911 14.429033-31.464601-6.98179-71.586623-10.053777-77.078964-22.52791-41.052927-56.785227-41.797651-58.83322-68.793907A51.199795 51.199795 0 0 1 706.258586 6.795609a53.247787 53.247787 0 0 1 42.542375 18.618108A36.584581 36.584581 0 0 1 783.33755 0.186181c18.618107 1.303268 28.951157 21.783186 30.533696 35.932947 2.885807 25.320626-19.455922 46.545268-21.224642 48.50017a100.258508 100.258508 0 0 0-17.687202 16.570115 172.682946 172.682946 0 0 0-12.19486 19.921375s4.840708 7.167971 8.378148 11.170865a47.103812 47.103812 0 0 0 14.149762 10.798502c12.567222 6.8887 86.574199 66.094281 118.969706 120.272973a380.181752 380.181752 0 0 1 50.548161 203.402823c-3.723621 199.958473-165.328793 329.912862-191.394143 350.206599a57.436861 57.436861 0 0 0 25.879169 21.969367 65.163376 65.163376 0 0 0 31.27842 2.699626 350.765142 350.765142 0 0 1-134.236554 23.272634c-100.723961-2.978897-174.172394-59.112491-233.284885-104.354492-121.855513-93.090537-113.011912-148.944859-197.351938-170.169501-36.49149-9.309054-73.727705-6.516338-154.157929-29.230429-29.882062-8.471239-54.085602-17.035568-70.190264-23.086453a234.029609 234.029609 0 0 1 1.210177-132.560924 227.885634 227.885634 0 0 1 43.752552-79.77859z" fill="#0E7FB7" p-id="38071"></path><path d="M270.408693 389.490806m-92.997446 0a92.997446 92.997446 0 1 0 185.994892 0 92.997446 92.997446 0 1 0-185.994892 0Z" fill="#FFFFFF" p-id="38072"></path><path d="M270.408693 389.490806m-57.15759 0a57.15759 57.15759 0 1 0 114.31518 0 57.15759 57.15759 0 1 0-114.31518 0Z" p-id="38073"></path></svg>