<?xml version="1.0" standalone="no"?><!DOCTYPE svg PUBLIC "-//W3C//DTD SVG 1.1//EN" "http://www.w3.org/Graphics/SVG/1.1/DTD/svg11.dtd"><svg t="1576035713507" class="icon" viewBox="0 0 1024 1024" version="1.1" xmlns="http://www.w3.org/2000/svg" p-id="7355" xmlns:xlink="http://www.w3.org/1999/xlink" width="200" height="200"><defs><style type="text/css"></style></defs><path d="M415.9 496.2H202.7c-45.7 0-82.9-37.2-82.9-82.9V200.1c0-45.7 37.2-82.9 82.9-82.9h213.2c45.7 0 82.9 37.2 82.9 82.9v213.2c0 45.7-37.2 82.9-82.9 82.9z m-196.6-99.5h180v-180h-180v180zM415.9 903.7H202.7c-45.7 0-82.9-37.2-82.9-82.9V607.6c0-45.7 37.2-82.9 82.9-82.9h213.2c45.7 0 82.9 37.2 82.9 82.9v213.2c0 45.7-37.2 82.9-82.9 82.9z m-196.6-99.5h180v-180h-180v180zM823.4 903.7H610.2c-45.7 0-82.9-37.2-82.9-82.9V607.6c0-45.7 37.2-82.9 82.9-82.9h213.2c45.7 0 82.9 37.2 82.9 82.9v213.2c0 45.7-37.2 82.9-82.9 82.9z m-196.6-99.5h180v-180h-180v180z" fill="#76B4FF" p-id="7356"></path><path d="M823.4 496.2H610.2c-45.7 0-82.9-37.2-82.9-82.9V200.1c0-45.7 37.2-82.9 82.9-82.9h213.2c45.7 0 82.9 37.2 82.9 82.9v213.2c0 45.7-37.2 82.9-82.9 82.9z m-196.6-99.5h180v-180h-180v180z" fill="#00EFEF" p-id="7357"></path></svg>