<?xml version="1.0" standalone="no"?><!DOCTYPE svg PUBLIC "-//W3C//DTD SVG 1.1//EN" "http://www.w3.org/Graphics/SVG/1.1/DTD/svg11.dtd"><svg t="1576035352036" class="icon" viewBox="0 0 1024 1024" version="1.1" xmlns="http://www.w3.org/2000/svg" p-id="4723" xmlns:xlink="http://www.w3.org/1999/xlink" width="200" height="200"><defs><style type="text/css"></style></defs><path d="M195.732299 0.00951c41.803911-0.475487 51.840999 16.961901 71.87195 37.070658L391.399327 164.329008c16.369704 20.480501 44.816766 35.04768 55.899925 60.114464 13.771819 31.122754-12.37994 72.265307-11.977938 73.142796q18.466168 19.019461 36.932335 38.073502l51.910161-52.100355c21.613024-10.806512 30.811527-45.210123 68.876384-39.076347 41.86875 6.747586 79.410572 62.677769 105.80872 89.171014 13.776141 13.832335 31.689016 27.055183 41.929266 44.090569a71.513173 71.513173 0 0 1 7.983851 48.0933c-8.459338 37.416467-73.665831 80.910516-96.826347 111.216299l6.989652 7.011264 37.930857 40.079192 21.958832-22.045284c15.850992-7.080427 36.39201-17.610292 58.89549-8.01411s39.046089 34.057803 54.897081 51.097511l114.791093 117.229042c18.193843 18.384038 59.561171 42.793787 53.907204 82.159749-4.616542 32.134244-23.821875 44.95509-41.929267 63.11003l-108.804284 111.216298c-54.071463 36.175879-98.888229-34.070771-124.77631-60.114465l-124.7936-127.244517c-14.567178-14.619049-37.342983-34.628387-27.949962-69.131418 6.799457-24.980333 27.262668-35.255165 40.926422-53.103199v-2.005689L569.058383 622.235499l-67.864895 69.109805c-30.867721 21.128892-100.669143 12.142197-147.733663 12.025487L302.552508 651.270435l-0.998521-67.130052c4.162668-27.790026-0.708907-53.284749 7.983851-75.144161 11.264708-28.321706 62.154734-62.405445 81.852844-88.181137v-2.005689l-39.927901-40.074869h-0.998521l-20.960311 22.045284c-19.045397 19.114558-50.142215 53.725655-89.836695 30.059394-21.003537-12.535554-42.646819-39.145509-57.896968-58.113099L65.976349 254.498543c-16.252994-16.425898-48.901628-36.404977-42.923465-73.142795 5.390288-33.10683 28.779903-47.846912 47.916073-67.130052C110.659114 74.219989 143.497943 27.445082 195.732299 0.00951z m9.980894 29.056549c-26.32034 11.173933-37.900599 28.330352-55.899924 47.090456L71.958834 154.30921c-7.547268 7.573204-35.371875 43.269274-8.982373 53.103199l164.691242-168.326552-2.991242-4.007055a109.150093 109.150093 0 0 0-18.963268-6.012743z m41.929267 31.062238l-164.691242 169.325074 19.966111 21.04244 165.698409-169.329397c-5.079061-6.985329-12.946201-17.22558-20.977601-21.038117z m40.922099 42.097848l-164.691242 169.325074 20.964633 21.04244L310.536359 123.264262z m41.929267 43.083402l-164.691242 168.326552 19.966111 21.038118h1.992721l163.705688-168.326553v-2.001366z m41.929266 42.080557L206.711715 356.697888l20.960311 21.04244 2.995565-2.005689 162.707166-167.319385z m41.929266 42.080558L248.649627 398.800058l2.995565 4.007055c28.996033 11.407354 40.30829-6.393132 55.899925-22.045284L403.372942 283.576706c12.258907-12.336714 30.660236-35.350262 10.966448-54.123335z m156.716036 94.180912l-213.614483 218.425542 4.988286 5.009899c11.355483 23.92994 46.684132-25.706531 58.89549-38.073503l165.689764-170.340886zM749.743263 580.133329c-22.728256 12.06439-40.399064 31.784113-55.899925 51.097511l-55.899925 57.110254-30.941205 30.059394c-9.289278 12.764652-5.057448 28.935516 1.992721 40.074869q25.45582-25.040849 50.911639-50.094667L775.678891 589.150282l-2.995565-4.007054a53.820752 53.820752 0 0 0-22.940063-5.009899z m45.91903 30.055071l-164.691242 169.329397 12.967815 13.024008 6.985329 8.018432 50.911639-50.09899 114.791092-119.230407c-5.109319-7.184169-12.764652-17.156418-20.973278-21.04244z m40.926422 43.083402l-163.705688 168.326552v2.005689l19.961789 19.019461 49.913117-49.096145 115.789614-120.233252c-4.754865-6.535778-13.650786-17.411452-21.967477-20.022305z m-682.772714 9.016953c150.396388-1.962463 250.879659 109.746613 219.588322 273.530108-6.051647 31.593918-15.306344 60.157691-22.961676 88.181137L23.03127 689.352584c25.382335-7.253331 51.36119-16.101703 79.860124-22.045285z m724.697658 33.067927l-164.691242 169.325074 19.961789 21.04244 51.905838-51.101834 114.795415-118.227563-19.966112-21.038117h-1.99272z m41.929266 42.080557l-164.691242 169.325074v2.005689l19.961789 19.019461 51.879903-51.080221 113.796893-118.231885z m40.926422 43.083402l-164.691242 168.32223 3.989764 5.009899c29.886489 9.894442 40.334225-7.408945 56.898447-24.046651l96.826347-98.187967c8.251853-8.308046 30.988754-40.986938 6.959394-51.097511z" fill="#1296db" p-id="4724"></path></svg>